# xmcd
#
# Track frame offsets: 
#        150
#        15878
#        32511
#        47636
#        71896
#        90470
#        103854
#        119512
#        132585
#        153068
#        169075
#        184608
#        200561
#        220753
#
# Disc length: 3157 seconds
#
# Revision: 0
# Processed by: cddbd v1.5.1PL0 Copyright (c) Steve Scherf et al.
# Submitted via: ExactAudioCopy v0.95a5
#
DISCID=b90c530e
DTITLE=Joe's Basement Blues - Joe's Basement Blues
DYEAR=1900
DGENRE=Blues
TTITLE0=Left Me Cryin'
TTITLE1=Mistreated
TTITLE2=Why Won't You
TTITLE3=New Orleans
TTITLE4=Back Home
TTITLE5=One World
TTITLE6=Lovin' Too Long
TTITLE7=Lord She Does
TTITLE8=Drinkin' by Surprise
TTITLE9=Mama Say
TTITLE10=Love and Blues
TTITLE11=No More Love
TTITLE12=Bad Luck
TTITLE13=What about Love
EXTD=
EXTT0=Left Me Cryin'
EXTT1=
EXTT2=
EXTT3=
EXTT4=
EXTT5=
EXTT6=
EXTT7=
EXTT8=
EXTT9=
EXTT10=
EXTT11=
EXTT12=
EXTT13=
PLAYORDER=
